<svg width="51" height="50" viewBox="0 0 51 50" fill="none" xmlns="http://www.w3.org/2000/svg">
<g clip-path="url(#clip0_574_1912)">
<path fill-rule="evenodd" clip-rule="evenodd" d="M27.5446 3.70361C14.7599 3.70361 4.39648 14.067 4.39648 26.8518C4.39648 39.6365 14.7599 49.9999 27.5446 49.9999C40.3294 49.9999 50.6928 39.6365 50.6928 26.8518C50.6928 14.067 40.3294 3.70361 27.5446 3.70361ZM19.4428 21.0647C19.4428 20.0008 19.6523 18.9472 20.0595 17.9643C20.4667 16.9813 21.0634 16.0882 21.8158 15.3358C22.5681 14.5835 23.4612 13.9867 24.4442 13.5796C25.4272 13.1724 26.4807 12.9629 27.5446 12.9629C28.6086 12.9629 29.6621 13.1724 30.6451 13.5796C31.628 13.9867 32.5212 14.5835 33.2735 15.3358C34.0258 16.0882 34.6226 16.9813 35.0298 17.9643C35.4369 18.9472 35.6465 20.0008 35.6465 21.0647C35.6465 23.2135 34.7929 25.2742 33.2735 26.7936C31.7541 28.313 29.6934 29.1666 27.5446 29.1666C25.3959 29.1666 23.3351 28.313 21.8158 26.7936C20.2964 25.2742 19.4428 23.2135 19.4428 21.0647ZM42.0307 38.3888C40.298 40.5685 38.0951 42.3285 35.5867 43.5374C33.0783 44.7463 30.3292 45.3729 27.5446 45.3703C24.7601 45.3729 22.011 44.7463 19.5026 43.5374C16.9942 42.3285 14.7913 40.5685 13.0585 38.3888C16.8108 35.6967 21.9312 33.7962 27.5446 33.7962C33.1581 33.7962 38.2784 35.6967 42.0307 38.3888Z" fill="#FAE7CB"/>
</g>
<defs>
<clipPath id="clip0_574_1912">
<rect width="50" height="50" fill="white" transform="translate(0.692383)"/>
</clipPath>
</defs>
</svg>
